<svg width="32" height="32" viewBox="0 0 32 32" fill="none" xmlns="http://www.w3.org/2000/svg">
<g clip-path="url(#clip0)">
<path d="M3.70423 9.3338C3.41922 9.23082 3.10449 9.37438 2.9951 9.65667L1.979 12.445C1.92782 12.5832 1.9335 12.7364 1.99479 12.8705C2.02204 12.9288 2.05941 12.9822 2.10504 13.0278C2.16165 13.0854 2.23022 13.1296 2.3057 13.1579L12.1277 16.7258L5.18095 22.4598C5.04443 22.5729 4.96981 22.7437 4.9798 22.9204C5.03037 23.4569 5.25778 23.9611 5.62592 24.3541C5.73099 24.4589 5.84852 24.5501 5.97617 24.6259C6.6615 25.0276 7.56721 24.9647 8.68185 24.425L19.1179 19.2582L26.7699 22.0422C29.0225 22.8615 31.2672 22.1998 31.8699 20.534C32.1611 19.6395 31.9866 18.6585 31.4052 17.919C30.7821 17.0744 29.9167 16.4399 28.924 16.0998L20.0788 12.9018L16.1369 3.8953C15.6286 2.7729 14.975 2.13505 14.1952 2.00913C13.5035 1.94093 12.8186 2.19338 12.3364 2.69409C12.2157 2.82272 12.1631 3.00081 12.1945 3.1747L13.5571 10.5311L9.87899 9.2159L6.75597 3.96597C6.6266 3.75225 6.3707 3.65099 6.12984 3.71796L3.20797 4.55289C3.0543 4.59827 2.92764 4.70791 2.86067 4.85356C2.79334 4.99909 2.79223 5.16644 2.85747 5.31308L4.67679 9.69244L3.70423 9.3338ZM13.3404 3.30444C13.5301 3.16113 13.7659 3.0938 14.0022 3.1155C14.3883 3.17852 14.7742 3.61177 15.1168 4.36382L18.6336 12.3781L14.7741 10.976L13.3404 3.30444ZM4.10961 5.44689L6.01169 4.91522L9.04024 9.94415C9.10511 10.0529 9.20501 10.1363 9.32377 10.1808L28.5342 17.1592C29.3116 17.423 29.9914 17.9158 30.4837 18.5729C30.8496 19.013 30.976 19.6046 30.8225 20.156C30.444 21.1956 28.7586 21.5816 27.1478 20.9947L20.4843 18.5847L21.5755 18.045C21.855 17.9049 21.9678 17.5644 21.8276 17.2851C21.6871 17.0055 21.3467 16.8928 21.0674 17.033L8.18176 23.4363C7.44117 23.7909 6.87399 23.8776 6.53558 23.6805C6.33776 23.5466 6.19865 23.3423 6.1455 23.1096L15.2035 15.627C15.4416 15.4301 15.4751 15.0777 15.278 14.8394C15.0814 14.6011 14.7287 14.5678 14.4906 14.7645L13.1045 15.9067L3.19588 12.2991L3.82238 10.5626L5.4524 11.1533C5.65836 11.2332 5.89182 11.184 6.04782 11.028C6.20396 10.8718 6.25317 10.6384 6.17313 10.4325L4.10961 5.44689Z" fill="#070814"/>
</g>
<defs>
<clipPath id="clip0">
<rect width="32" height="32" fill="white"/>
</clipPath>
</defs>
</svg>
