<svg width="32" height="32" viewBox="0 0 32 32" fill="none" xmlns="http://www.w3.org/2000/svg">
<g clip-path="url(#clip0)">
<path d="M3.8147 18.1926C3.53921 18.3219 3.41767 18.6473 3.54044 18.9254L4.79876 21.6266C4.86058 21.7611 4.97336 21.8658 5.11206 21.9175C5.17284 21.9395 5.23728 21.9509 5.30208 21.9509C5.38317 21.9516 5.4632 21.9343 5.53693 21.9008L15.0441 17.4602L14.183 26.4639C14.1663 26.6411 14.2346 26.8154 14.3672 26.9338C14.784 27.2788 15.3035 27.4753 15.8439 27.4929C15.9929 27.4928 16.1411 27.474 16.2856 27.4373C17.0574 27.2359 17.6558 26.5481 18.064 25.3735L21.8054 14.2951L29.2151 10.8387C31.3962 9.82101 32.5202 7.75744 31.7654 6.14676C31.337 5.3049 30.5165 4.73222 29.5787 4.61997C28.5367 4.4627 27.4717 4.62662 26.5253 5.09002L17.9744 9.09964L8.78071 5.50368C7.62292 5.0676 6.70593 5.07881 6.06285 5.54308C5.52327 5.98581 5.21627 6.65131 5.2294 7.34921C5.23501 7.52626 5.32415 7.69001 5.46986 7.79124L11.6606 12.0469L8.11521 13.7247L2.17022 12.2145C1.92661 12.1546 1.67302 12.2644 1.54955 12.483L0.0677707 15.1504C-0.00911178 15.2917 -0.0211958 15.4595 0.034671 15.6105C0.0901874 15.7616 0.208226 15.8812 0.358663 15.939L4.75988 17.7567L3.8147 18.1926ZM6.37563 7.0697C6.40856 6.83327 6.52817 6.61804 6.71136 6.46567C7.03027 6.23625 7.61188 6.26987 8.38911 6.56059L16.5765 9.75393L12.8406 11.4988L6.37563 7.0697ZM1.34272 15.145L2.31575 13.417L8.03675 14.8373C8.16004 14.8685 8.29016 14.8567 8.4061 14.804L27.0008 6.11891C27.74 5.75429 28.5726 5.62154 29.3887 5.73853C29.961 5.79124 30.4708 6.12154 30.7533 6.62206C31.2227 7.62889 30.3001 9.09964 28.7397 9.82661L22.2973 12.8467L22.6889 11.6888C22.7878 11.3909 22.6262 11.069 22.3283 10.9702C22.0301 10.8714 21.7083 11.0331 21.6096 11.331L17.007 25.0266C16.7329 25.8042 16.3917 26.2684 16.0115 26.3688C15.776 26.4141 15.5322 26.3679 15.3292 26.2404L16.4478 14.4961C16.477 14.1874 16.2506 13.9133 15.9415 13.884C15.6327 13.8544 15.3586 14.0812 15.3292 14.39L15.156 16.1851L5.55917 20.659L4.77108 18.9812L6.34779 18.2432C6.55076 18.1537 6.68159 17.953 6.68159 17.7315C6.68159 17.5098 6.55076 17.3091 6.34779 17.2198L1.34272 15.145Z" fill="#070814"/>
</g>
<defs>
<clipPath id="clip0">
<rect width="32" height="32" fill="white"/>
</clipPath>
</defs>
</svg>
