<svg width="140" height="40" viewBox="0 0 140 40" fill="none" xmlns="http://www.w3.org/2000/svg">
<path fill-rule="evenodd" clip-rule="evenodd" d="M5.15325 21.6827C4.51331 21.606 3.92859 21.2656 3.52771 20.7363C3.12683 20.207 2.94263 19.5322 3.01563 18.8603C3.08863 18.1884 3.41285 17.5745 3.91697 17.1536C4.42109 16.7327 5.06382 16.5393 5.70375 16.6159L8.26197 16.9056C8.62855 15.4706 9.24924 14.1209 10.0916 12.9271L6.82095 8.91539C6.61231 8.66093 6.45348 8.36579 6.35352 8.04686C6.25357 7.72792 6.21445 7.39143 6.23841 7.05661C6.26236 6.7218 6.34892 6.39522 6.49314 6.09554C6.63736 5.79586 6.8364 5.52896 7.07891 5.31008C7.32141 5.0912 7.60261 4.92464 7.90645 4.81992C8.21028 4.71519 8.5308 4.67436 8.84967 4.69974C9.16855 4.72513 9.47953 4.81624 9.76486 4.96786C10.0502 5.11949 10.3043 5.32866 10.5126 5.58342L13.7508 9.5611C15.3278 8.65742 17.0874 8.16198 18.8834 8.11597L19.2073 5.26053C19.2434 4.92789 19.3416 4.60599 19.4962 4.31319C19.6508 4.02039 19.8588 3.76244 20.1084 3.55405C20.358 3.34567 20.6442 3.19093 20.9507 3.09869C21.2572 3.00644 21.5781 2.97849 21.8949 3.01642C22.2117 3.05435 22.5183 3.15743 22.7972 3.31977C23.076 3.48211 23.3217 3.70053 23.5202 3.96256C23.7187 4.2246 23.866 4.52511 23.9539 4.84694C24.0418 5.16877 24.0684 5.50562 24.0323 5.83825L23.676 9.06804C24.8891 9.62915 26.001 10.4056 26.9629 11.3632L28.2258 10.3264C28.4788 10.1211 28.7679 9.97 29.0765 9.88191C29.3851 9.79382 29.7072 9.77041 30.0244 9.81302C30.3417 9.85563 30.6478 9.96343 30.9253 10.1303C31.2029 10.2971 31.4464 10.5197 31.642 10.7853C31.8377 11.051 31.9815 11.3545 32.0654 11.6785C32.1493 12.0025 32.1716 12.3407 32.131 12.6738C32.0905 13.0069 31.9878 13.3283 31.8289 13.6197C31.67 13.9111 31.458 14.1668 31.205 14.3722L29.6992 15.5792C30.1756 16.8317 30.4492 18.159 30.5088 19.5062L34.848 20.0159C35.464 20.0901 36.0296 20.4088 36.429 20.9067C36.8284 21.4046 37.0312 22.044 36.996 22.694C36.9609 23.3439 36.6903 23.9551 36.2397 24.4023C35.7892 24.8495 35.1928 25.0988 34.5728 25.0992C34.4807 25.1015 34.3887 25.0959 34.2975 25.0826L29.6668 24.5381C29.2828 25.4972 28.7821 26.4001 28.1772 27.2242L29.9421 29.3832C30.3626 29.8973 30.5716 30.5657 30.523 31.2415C30.4744 31.9173 30.1723 32.5452 29.683 32.9873C29.1919 33.4255 28.5561 33.6427 27.9134 33.5918C27.2708 33.5408 26.6732 33.2258 26.2505 32.715L24.4694 30.5221C23.4237 31.0993 22.2982 31.501 21.134 31.7124L20.794 34.738C20.7259 35.3599 20.4426 35.9339 19.9978 36.3508C19.553 36.7677 18.9778 36.9984 18.3815 36.9991C18.2895 37.0024 18.1973 36.9968 18.1063 36.9825C17.7891 36.9454 17.482 36.8429 17.2027 36.6808C16.9234 36.5187 16.6774 36.3002 16.4788 36.0379C16.2801 35.7757 16.1329 35.4748 16.0454 35.1525C15.9579 34.8303 15.9319 34.4931 15.969 34.1603L16.2766 31.4908C14.8882 31.0945 13.5817 30.4317 12.4231 29.5359L10.1563 31.3721C9.64518 31.7845 8.99914 31.9673 8.35982 31.8804C7.7205 31.7935 7.14008 31.444 6.74577 30.9085C6.35147 30.3731 6.17546 29.6953 6.25632 29.0238C6.33718 28.3523 6.66832 27.7419 7.17715 27.3263L9.23344 25.677C8.64525 24.5362 8.24043 23.3013 8.03529 22.0222L5.15325 21.6827ZM5.58858 24.7547L4.79648 24.6614C3.3209 24.4846 2.01207 23.704 1.13622 22.5476C0.263996 21.396 -0.120873 19.9541 0.0331794 18.5363C0.187332 17.1175 0.875116 15.7851 1.99426 14.8507C3.11616 13.914 4.57506 13.4626 6.04901 13.6359L6.23428 13.6568C6.30294 13.5051 6.37408 13.3546 6.44768 13.2052L4.50104 10.8175C4.49999 10.8162 4.49894 10.8149 4.49788 10.8136C4.04332 10.2582 3.70334 9.62214 3.49082 8.94403C3.27785 8.26449 3.19537 7.55094 3.24606 6.84251C3.29675 6.13405 3.48009 5.43835 3.78988 4.79463C4.09977 4.15068 4.53208 3.56752 5.06884 3.08305C5.60594 2.59828 6.23698 2.22214 6.92886 1.98367C7.62111 1.74507 8.35538 1.6509 9.08774 1.7092C9.82001 1.7675 10.5287 1.97646 11.1727 2.3187C11.8163 2.66072 12.3795 3.12727 12.8351 3.6845L12.8391 3.68939L14.6228 5.88045C15.1291 5.70432 15.6448 5.55771 16.1675 5.44143L16.2257 4.92835C16.303 4.22609 16.5113 3.54119 16.8434 2.9123C17.1769 2.28073 17.6307 1.71457 18.1856 1.25126C18.7409 0.787642 19.3859 0.436718 20.0862 0.225958C20.7868 0.0150993 21.5233 -0.0494943 22.2515 0.0376954C22.9796 0.124867 23.6778 0.361149 24.3064 0.72708C24.9346 1.09277 25.4782 1.57903 25.9116 2.15119C26.3448 2.72307 26.6608 3.37126 26.848 4.05685C27.0351 4.7423 27.0913 5.45709 27.0147 6.16219L27.0142 6.16712L26.8747 7.43215C26.9215 7.46337 26.9681 7.49485 27.0145 7.52661C27.4014 7.30023 27.817 7.12161 28.253 6.99713C28.9577 6.79599 29.6961 6.74197 30.4238 6.83973C31.1514 6.93745 31.8469 7.18396 32.4709 7.559C33.0944 7.9338 33.6318 8.42795 34.0578 9.00646C34.4836 9.5847 34.7913 10.2377 34.9697 10.9265C35.148 11.6152 35.1949 12.3316 35.109 13.0367C35.0231 13.7418 34.8052 14.4279 34.4628 15.0559C34.1307 15.6649 33.6859 16.2108 33.1466 16.6595C33.157 16.706 33.1671 16.7525 33.177 16.799L35.2067 17.0374C36.6264 17.2084 37.8945 17.9391 38.7692 19.0296C39.6405 20.1159 40.0659 21.485 39.9917 22.8562C39.9174 24.2277 39.3458 25.5462 38.3531 26.5315C37.364 27.5132 36.0281 28.0891 34.6088 28.0991C34.377 28.1029 34.1454 28.0893 33.9159 28.0584L32.5738 27.9006C33.278 28.9477 33.6053 30.2043 33.5153 31.4566C33.4129 32.8805 32.7749 34.2369 31.6942 35.2133L31.6874 35.2195L31.6805 35.2256C30.5929 36.1962 29.1543 36.6996 27.6762 36.5824C26.1996 36.4652 24.8629 35.7435 23.9395 34.6281L23.9306 34.6172L23.8391 34.5046L23.7762 35.0643C23.776 35.0659 23.7759 35.0675 23.7757 35.069C23.631 36.3808 23.0304 37.6202 22.0493 38.5397C21.0745 39.4533 19.7908 39.9852 18.4325 39.9988C18.1886 40.0044 17.9448 39.9899 17.7036 39.9556C16.9931 39.8651 16.3117 39.6323 15.6968 39.2754C15.0667 38.9097 14.5215 38.4226 14.0872 37.8491C13.6531 37.2758 13.3368 36.6259 13.1502 35.9385C12.9636 35.2513 12.9088 34.5347 12.9874 33.8282L12.9887 33.8168L13.0323 33.4391C12.8964 33.3719 12.7615 33.3024 12.6278 33.2309L12.0401 33.7069C10.8996 34.627 9.42949 35.0533 7.95582 34.8531C6.48471 34.6531 5.18918 33.8541 4.33007 32.6874C3.47442 31.5254 3.10741 30.0804 3.27784 28.6652C3.44839 27.2489 4.15051 25.9248 5.27947 25.0028L5.28973 24.9944L5.58858 24.7547Z" fill="#1562D7"/>
<path d="M25.6445 14C26.1724 14 26.6293 14.1929 27.0151 14.5787C27.4009 14.9645 27.5938 15.4213 27.5938 15.9492C27.5938 16.4771 27.4009 16.934 27.0151 17.3198L19.2182 25.1166C18.8324 25.5024 18.3756 25.6953 17.8477 25.6953C17.3197 25.6953 16.8629 25.5024 16.4771 25.1166L12.5787 21.2182C12.1929 20.8324 12 20.3756 12 19.8477C12 19.3197 12.1929 18.8629 12.5787 18.4771C12.9645 18.0913 13.4213 17.8984 13.9492 17.8984C14.4771 17.8984 14.934 18.0913 15.3198 18.4771L17.8477 21.005L24.274 14.5787C24.6598 14.1929 25.1166 14 25.6445 14Z" fill="#1562D7"/>
<path d="M52.8047 12.95C52.8047 11.3707 53.1574 9.96001 53.8627 8.71801C54.5834 7.46068 55.557 6.48701 56.7837 5.79701C58.0257 5.09168 59.4134 4.73901 60.9467 4.73901C62.7407 4.73901 64.3124 5.19901 65.6617 6.11901C67.011 7.03901 67.954 8.31168 68.4907 9.93701H64.7877C64.4197 9.17034 63.8984 8.59534 63.2237 8.21201C62.5644 7.82868 61.7977 7.63701 60.9237 7.63701C59.9884 7.63701 59.1527 7.85934 58.4167 8.30401C57.696 8.73334 57.1287 9.34668 56.7147 10.144C56.316 10.9413 56.1167 11.8767 56.1167 12.95C56.1167 14.008 56.316 14.9433 56.7147 15.756C57.1287 16.5533 57.696 17.1743 58.4167 17.619C59.1527 18.0483 59.9884 18.263 60.9237 18.263C61.7977 18.263 62.5644 18.0713 63.2237 17.688C63.8984 17.2893 64.4197 16.7067 64.7877 15.94H68.4907C67.954 17.5807 67.011 18.861 65.6617 19.781C64.3277 20.6857 62.756 21.138 60.9467 21.138C59.4134 21.138 58.0257 20.793 56.7837 20.103C55.557 19.3977 54.5834 18.424 53.8627 17.182C53.1574 15.94 52.8047 14.5293 52.8047 12.95ZM76.899 21.207C75.6723 21.207 74.5683 20.9387 73.587 20.402C72.6057 19.85 71.8313 19.0757 71.264 18.079C70.712 17.0823 70.436 15.9323 70.436 14.629C70.436 13.3257 70.7197 12.1757 71.287 11.179C71.8697 10.1823 72.6593 9.41568 73.656 8.87901C74.6527 8.32701 75.7643 8.05101 76.991 8.05101C78.2177 8.05101 79.3293 8.32701 80.326 8.87901C81.3227 9.41568 82.1047 10.1823 82.672 11.179C83.2547 12.1757 83.546 13.3257 83.546 14.629C83.546 15.9323 83.247 17.0823 82.649 18.079C82.0663 19.0757 81.269 19.85 80.257 20.402C79.2603 20.9387 78.141 21.207 76.899 21.207ZM76.899 18.401C77.4817 18.401 78.026 18.263 78.532 17.987C79.0533 17.6957 79.4673 17.2663 79.774 16.699C80.0807 16.1317 80.234 15.4417 80.234 14.629C80.234 13.4177 79.912 12.49 79.268 11.846C78.6393 11.1867 77.865 10.857 76.945 10.857C76.025 10.857 75.2507 11.1867 74.622 11.846C74.0087 12.49 73.702 13.4177 73.702 14.629C73.702 15.8403 74.001 16.7757 74.599 17.435C75.2123 18.079 75.979 18.401 76.899 18.401ZM89.128 10.236C89.542 9.56134 90.0787 9.03234 90.738 8.64901C91.4127 8.26568 92.1793 8.07401 93.038 8.07401V11.455H92.187C91.175 11.455 90.4083 11.6927 89.887 12.168C89.381 12.6433 89.128 13.4713 89.128 14.652V21H85.908V8.25801H89.128V10.236ZM100.865 21.207C99.6382 21.207 98.5342 20.9387 97.5528 20.402C96.5715 19.85 95.7972 19.0757 95.2298 18.079C94.6778 17.0823 94.4018 15.9323 94.4018 14.629C94.4018 13.3257 94.6855 12.1757 95.2528 11.179C95.8355 10.1823 96.6252 9.41568 97.6218 8.87901C98.6185 8.32701 99.7302 8.05101 100.957 8.05101C102.184 8.05101 103.295 8.32701 104.292 8.87901C105.289 9.41568 106.071 10.1823 106.638 11.179C107.221 12.1757 107.512 13.3257 107.512 14.629C107.512 15.9323 107.213 17.0823 106.615 18.079C106.032 19.0757 105.235 19.85 104.223 20.402C103.226 20.9387 102.107 21.207 100.865 21.207ZM100.865 18.401C101.448 18.401 101.992 18.263 102.498 17.987C103.019 17.6957 103.433 17.2663 103.74 16.699C104.047 16.1317 104.2 15.4417 104.2 14.629C104.2 13.4177 103.878 12.49 103.234 11.846C102.605 11.1867 101.831 10.857 100.911 10.857C99.9908 10.857 99.2165 11.1867 98.5878 11.846C97.9745 12.49 97.6678 13.4177 97.6678 14.629C97.6678 15.8403 97.9668 16.7757 98.5648 17.435C99.1782 18.079 99.9448 18.401 100.865 18.401ZM116.935 8.07401C118.453 8.07401 119.68 8.55701 120.615 9.52301C121.55 10.4737 122.018 11.8077 122.018 13.525V21H118.798V13.962C118.798 12.95 118.545 12.1757 118.039 11.639C117.533 11.087 116.843 10.811 115.969 10.811C115.08 10.811 114.374 11.087 113.853 11.639C113.347 12.1757 113.094 12.95 113.094 13.962V21H109.874V8.25801H113.094V9.84501C113.523 9.29301 114.068 8.86368 114.727 8.55701C115.402 8.23501 116.138 8.07401 116.935 8.07401ZM124.252 14.583C124.252 13.295 124.505 12.1527 125.011 11.156C125.532 10.1593 126.23 9.39268 127.104 8.85601C127.993 8.31934 128.982 8.05101 130.071 8.05101C131.022 8.05101 131.85 8.24268 132.555 8.62601C133.276 9.00934 133.851 9.49234 134.28 10.075V8.25801H137.523V21H134.28V19.137C133.866 19.735 133.291 20.2333 132.555 20.632C131.834 21.0153 130.999 21.207 130.048 21.207C128.975 21.207 127.993 20.931 127.104 20.379C126.23 19.827 125.532 19.0527 125.011 18.056C124.505 17.044 124.252 15.8863 124.252 14.583ZM134.28 14.629C134.28 13.847 134.127 13.18 133.82 12.628C133.513 12.0607 133.099 11.6313 132.578 11.34C132.057 11.0333 131.497 10.88 130.899 10.88C130.301 10.88 129.749 11.0257 129.243 11.317C128.737 11.6083 128.323 12.0377 128.001 12.605C127.694 13.157 127.541 13.8163 127.541 14.583C127.541 15.3497 127.694 16.0243 128.001 16.607C128.323 17.1743 128.737 17.6113 129.243 17.918C129.764 18.2247 130.316 18.378 130.899 18.378C131.497 18.378 132.057 18.2323 132.578 17.941C133.099 17.6343 133.513 17.205 133.82 16.653C134.127 16.0857 134.28 15.411 134.28 14.629Z" fill="black"/>
<path d="M58.7637 27.355V28.378H56.7287V35H55.4747V28.378H53.4287V27.355H58.7637ZM65.5887 31.821C65.5887 32.0483 65.574 32.2537 65.5447 32.437H60.9137C60.9504 32.921 61.13 33.3097 61.4527 33.603C61.7754 33.8963 62.1714 34.043 62.6407 34.043C63.3154 34.043 63.792 33.7607 64.0707 33.196H65.4237C65.2404 33.7533 64.9067 34.2117 64.4227 34.571C63.946 34.923 63.352 35.099 62.6407 35.099C62.0614 35.099 61.5407 34.9707 61.0787 34.714C60.624 34.45 60.2647 34.0833 60.0007 33.614C59.744 33.1373 59.6157 32.5873 59.6157 31.964C59.6157 31.3407 59.7404 30.7943 59.9897 30.325C60.2464 29.8483 60.602 29.4817 61.0567 29.225C61.5187 28.9683 62.0467 28.84 62.6407 28.84C63.2127 28.84 63.7224 28.9647 64.1697 29.214C64.617 29.4633 64.9654 29.8153 65.2147 30.27C65.464 30.7173 65.5887 31.2343 65.5887 31.821ZM64.2797 31.425C64.2724 30.963 64.1074 30.5927 63.7847 30.314C63.462 30.0353 63.0624 29.896 62.5857 29.896C62.153 29.896 61.7827 30.0353 61.4747 30.314C61.1667 30.5853 60.9834 30.9557 60.9247 31.425H64.2797ZM69.0227 35.099C68.5461 35.099 68.1171 35.0147 67.7357 34.846C67.3617 34.67 67.0647 34.4353 66.8447 34.142C66.6247 33.8413 66.5074 33.5077 66.4927 33.141H67.7907C67.8127 33.3977 67.9337 33.614 68.1537 33.79C68.3811 33.9587 68.6634 34.043 69.0007 34.043C69.3527 34.043 69.6241 33.977 69.8147 33.845C70.0127 33.7057 70.1117 33.5297 70.1117 33.317C70.1117 33.0897 70.0017 32.921 69.7817 32.811C69.5691 32.701 69.2281 32.58 68.7587 32.448C68.3041 32.3233 67.9337 32.2023 67.6477 32.085C67.3617 31.9677 67.1124 31.788 66.8997 31.546C66.6944 31.304 66.5917 30.985 66.5917 30.589C66.5917 30.2663 66.6871 29.973 66.8777 29.709C67.0684 29.4377 67.3397 29.225 67.6917 29.071C68.0511 28.917 68.4617 28.84 68.9237 28.84C69.6131 28.84 70.1667 29.016 70.5847 29.368C71.0101 29.7127 71.2374 30.1857 71.2667 30.787H70.0127C69.9907 30.5157 69.8807 30.2993 69.6827 30.138C69.4847 29.9767 69.2171 29.896 68.8797 29.896C68.5497 29.896 68.2967 29.9583 68.1207 30.083C67.9447 30.2077 67.8567 30.3727 67.8567 30.578C67.8567 30.7393 67.9154 30.875 68.0327 30.985C68.1501 31.095 68.2931 31.183 68.4617 31.249C68.6304 31.3077 68.8797 31.3847 69.2097 31.48C69.6497 31.5973 70.0091 31.7183 70.2877 31.843C70.5737 31.9603 70.8194 32.1363 71.0247 32.371C71.2301 32.6057 71.3364 32.9173 71.3437 33.306C71.3437 33.6507 71.2484 33.9587 71.0577 34.23C70.8671 34.5013 70.5957 34.714 70.2437 34.868C69.8991 35.022 69.4921 35.099 69.0227 35.099ZM74.1617 29.962V33.317C74.1617 33.5443 74.2131 33.7093 74.3157 33.812C74.4257 33.9073 74.6091 33.955 74.8657 33.955H75.6357V35H74.6457C74.0811 35 73.6484 34.868 73.3477 34.604C73.0471 34.34 72.8967 33.911 72.8967 33.317V29.962H72.1817V28.939H72.8967V27.432H74.1617V28.939H75.6357V29.962H74.1617ZM79.2309 31.161C79.2309 30.413 79.4033 29.742 79.7479 29.148C80.0999 28.554 80.5729 28.092 81.1669 27.762C81.7683 27.4247 82.4246 27.256 83.1359 27.256C83.9499 27.256 84.6723 27.4577 85.3029 27.861C85.9409 28.257 86.4029 28.8217 86.6889 29.555H85.1819C84.9839 29.1517 84.7089 28.851 84.3569 28.653C84.0049 28.455 83.5979 28.356 83.1359 28.356C82.6299 28.356 82.1789 28.4697 81.7829 28.697C81.3869 28.9243 81.0753 29.2507 80.8479 29.676C80.6279 30.1013 80.5179 30.5963 80.5179 31.161C80.5179 31.7257 80.6279 32.2207 80.8479 32.646C81.0753 33.0713 81.3869 33.4013 81.7829 33.636C82.1789 33.8633 82.6299 33.977 83.1359 33.977C83.5979 33.977 84.0049 33.878 84.3569 33.68C84.7089 33.482 84.9839 33.1813 85.1819 32.778H86.6889C86.4029 33.5113 85.9409 34.076 85.3029 34.472C84.6723 34.868 83.9499 35.066 83.1359 35.066C82.4173 35.066 81.7609 34.901 81.1669 34.571C80.5729 34.2337 80.0999 33.768 79.7479 33.174C79.4033 32.58 79.2309 31.909 79.2309 31.161ZM93.7117 31.821C93.7117 32.0483 93.6971 32.2537 93.6677 32.437H89.0367C89.0734 32.921 89.2531 33.3097 89.5757 33.603C89.8984 33.8963 90.2944 34.043 90.7637 34.043C91.4384 34.043 91.9151 33.7607 92.1937 33.196H93.5467C93.3634 33.7533 93.0297 34.2117 92.5457 34.571C92.0691 34.923 91.4751 35.099 90.7637 35.099C90.1844 35.099 89.6637 34.9707 89.2017 34.714C88.7471 34.45 88.3877 34.0833 88.1237 33.614C87.8671 33.1373 87.7387 32.5873 87.7387 31.964C87.7387 31.3407 87.8634 30.7943 88.1127 30.325C88.3694 29.8483 88.7251 29.4817 89.1797 29.225C89.6417 28.9683 90.1697 28.84 90.7637 28.84C91.3357 28.84 91.8454 28.9647 92.2927 29.214C92.7401 29.4633 93.0884 29.8153 93.3377 30.27C93.5871 30.7173 93.7117 31.2343 93.7117 31.821ZM92.4027 31.425C92.3954 30.963 92.2304 30.5927 91.9077 30.314C91.5851 30.0353 91.1854 29.896 90.7087 29.896C90.2761 29.896 89.9057 30.0353 89.5977 30.314C89.2897 30.5853 89.1064 30.9557 89.0477 31.425H92.4027ZM98.0038 28.84C98.4805 28.84 98.9058 28.939 99.2798 29.137C99.6611 29.335 99.9581 29.6283 100.171 30.017C100.384 30.4057 100.49 30.875 100.49 31.425V35H99.2468V31.612C99.2468 31.0693 99.1111 30.655 98.8398 30.369C98.5685 30.0757 98.1981 29.929 97.7288 29.929C97.2595 29.929 96.8855 30.0757 96.6068 30.369C96.3355 30.655 96.1998 31.0693 96.1998 31.612V35H94.9458V28.939H96.1998V29.632C96.4051 29.3827 96.6655 29.1883 96.9808 29.049C97.3035 28.9097 97.6445 28.84 98.0038 28.84ZM103.553 29.962V33.317C103.553 33.5443 103.604 33.7093 103.707 33.812C103.817 33.9073 104 33.955 104.257 33.955H105.027V35H104.037C103.472 35 103.039 34.868 102.739 34.604C102.438 34.34 102.288 33.911 102.288 33.317V29.962H101.573V28.939H102.288V27.432H103.553V28.939H105.027V29.962H103.553ZM107.436 29.819C107.62 29.511 107.862 29.2727 108.162 29.104C108.47 28.928 108.833 28.84 109.251 28.84V30.138H108.932C108.441 30.138 108.067 30.2627 107.81 30.512C107.561 30.7613 107.436 31.194 107.436 31.81V35H106.182V28.939H107.436V29.819ZM115.959 31.821C115.959 32.0483 115.944 32.2537 115.915 32.437H111.284C111.321 32.921 111.5 33.3097 111.823 33.603C112.146 33.8963 112.542 34.043 113.011 34.043C113.686 34.043 114.162 33.7607 114.441 33.196H115.794C115.611 33.7533 115.277 34.2117 114.793 34.571C114.316 34.923 113.722 35.099 113.011 35.099C112.432 35.099 111.911 34.9707 111.449 34.714C110.994 34.45 110.635 34.0833 110.371 33.614C110.114 33.1373 109.986 32.5873 109.986 31.964C109.986 31.3407 110.111 30.7943 110.36 30.325C110.617 29.8483 110.972 29.4817 111.427 29.225C111.889 28.9683 112.417 28.84 113.011 28.84C113.583 28.84 114.093 28.9647 114.54 29.214C114.987 29.4633 115.336 29.8153 115.585 30.27C115.834 30.7173 115.959 31.2343 115.959 31.821ZM114.65 31.425C114.643 30.963 114.478 30.5927 114.155 30.314C113.832 30.0353 113.433 29.896 112.956 29.896C112.523 29.896 112.153 30.0353 111.845 30.314C111.537 30.5853 111.354 30.9557 111.295 31.425H114.65Z" fill="black"/>
</svg>
