<svg width="238" height="118" viewBox="0 0 238 118" fill="none" xmlns="http://www.w3.org/2000/svg">
<path d="M49 26C49.256 26 49.512 25.902 49.707 25.707C50.046 25.369 58 17.318 58 9C58 4.038 53.962 0 49 0C44.038 0 40 4.038 40 9C40 17.318 47.954 25.369 48.293 25.707C48.488 25.902 48.744 26 49 26ZM49 2C52.86 2 56 5.14 56 9C56 15.117 50.904 21.397 49 23.532C47.094 21.4 42 15.127 42 9C42 5.14 45.14 2 49 2Z" fill="#1A8952"/>
<path fill-rule="evenodd" clip-rule="evenodd" d="M48 5H50V13H48V5Z" fill="#1A8952"/>
<path fill-rule="evenodd" clip-rule="evenodd" d="M45 8H53V10H45V8Z" fill="#1A8952"/>
<path d="M54.403 21.9859L53.601 23.8179C54.567 24.2409 55 24.7169 55 24.9999C55 25.7049 52.722 26.9999 49 26.9999C45.278 26.9999 43 25.7049 43 24.9999C43 24.7159 43.433 24.2399 44.4 23.8159L43.6 21.9839C41.338 22.9729 41 24.2979 41 24.9999C41 27.6259 45.024 28.9999 49 28.9999C52.976 28.9999 57 27.6259 57 24.9999C57 24.2989 56.663 22.9749 54.403 21.9859Z" fill="#1A8952"/>
<path d="M229 101C229.256 101 229.512 100.902 229.707 100.707C230.046 100.369 238 92.318 238 84C238 79.038 233.962 75 229 75C224.038 75 220 79.038 220 84C220 92.318 227.954 100.369 228.293 100.707C228.488 100.902 228.744 101 229 101ZM229 77C232.86 77 236 80.14 236 84C236 90.117 230.904 96.397 229 98.532C227.094 96.4 222 90.127 222 84C222 80.14 225.14 77 229 77Z" fill="#1A8952"/>
<path fill-rule="evenodd" clip-rule="evenodd" d="M228 80H230V88H228V80Z" fill="#1A8952"/>
<path fill-rule="evenodd" clip-rule="evenodd" d="M225 83H233V85H225V83Z" fill="#1A8952"/>
<path d="M234.403 96.9859L233.601 98.8179C234.567 99.2409 235 99.7169 235 99.9999C235 100.705 232.722 102 229 102C225.278 102 223 100.705 223 99.9999C223 99.7159 223.433 99.2399 224.4 98.8159L223.6 96.9839C221.338 97.9729 221 99.2979 221 99.9999C221 102.626 225.024 104 229 104C232.976 104 237 102.626 237 99.9999C237 99.2989 236.663 97.9749 234.403 96.9859Z" fill="#1A8952"/>
<path d="M9 114C9.256 114 9.512 113.902 9.707 113.707C10.046 113.369 18 105.318 18 97C18 92.038 13.962 88 9 88C4.038 88 0 92.038 0 97C0 105.318 7.954 113.369 8.293 113.707C8.488 113.902 8.744 114 9 114ZM9 90C12.86 90 16 93.14 16 97C16 103.117 10.904 109.397 9 111.532C7.094 109.4 2 103.127 2 97C2 93.14 5.14 90 9 90Z" fill="#1A8952"/>
<path fill-rule="evenodd" clip-rule="evenodd" d="M8 93H10V101H8V93Z" fill="#1A8952"/>
<path fill-rule="evenodd" clip-rule="evenodd" d="M5 96H13V98H5V96Z" fill="#1A8952"/>
<path d="M14.403 109.986L13.601 111.818C14.567 112.241 15 112.717 15 113C15 113.705 12.722 115 9 115C5.278 115 3 113.705 3 113C3 112.716 3.433 112.24 4.4 111.816L3.6 109.984C1.338 110.973 1 112.298 1 113C1 115.626 5.024 117 9 117C12.976 117 17 115.626 17 113C17 112.299 16.663 110.975 14.403 109.986Z" fill="#1A8952"/>
<g clip-path="url(#clip0)">
<path d="M111.573 90.7176C111.935 90.8494 112.237 91.1083 112.423 91.4463L116.928 99.7451C117.063 99.9977 117.265 100.209 117.511 100.356C117.757 100.503 118.038 100.581 118.325 100.581C118.611 100.581 118.892 100.503 119.138 100.356C119.384 100.209 119.586 99.9977 119.721 99.7451L124.035 91.5504C124.225 91.1979 124.538 90.928 124.914 90.7928C129.172 89.2513 132.751 86.2607 135.024 82.345C137.298 78.4293 138.121 73.8384 137.349 69.3768C136.577 64.9152 134.26 60.8676 130.803 57.9432C127.346 55.0189 122.97 53.4044 118.443 53.3828C113.915 53.3611 109.524 54.9337 106.039 57.8248C102.554 60.7159 100.198 64.7412 99.3839 69.1952C98.5694 73.6492 99.3484 78.2478 101.584 82.185C103.82 86.1223 107.371 89.147 111.613 90.7291L111.573 90.7176ZM118.322 60.1306C119.722 60.1306 121.09 60.5457 122.254 61.3235C123.418 62.1013 124.326 63.2069 124.861 64.5003C125.397 65.7937 125.537 67.217 125.264 68.5901C124.991 69.9632 124.317 71.2245 123.327 72.2144C122.337 73.2044 121.076 73.8786 119.703 74.1517C118.329 74.4248 116.906 74.2846 115.613 73.7489C114.319 73.2131 113.214 72.3058 112.436 71.1418C111.658 69.9777 111.243 68.6091 111.243 67.2091C111.243 65.3318 111.989 63.5313 113.316 62.2038C114.644 60.8764 116.444 60.1306 118.322 60.1306ZM107.149 79.0241C108.652 77.9009 110.477 77.2925 112.353 77.2891H124.267C126.143 77.2925 127.968 77.9009 129.471 79.0241C129.795 79.2683 130.063 79.5776 130.259 79.932C130.454 80.2865 130.574 80.6781 130.609 81.0815C130.643 81.4849 130.593 81.8912 130.461 82.274C130.329 82.6568 130.118 83.0076 129.842 83.3036C128.365 84.8874 126.578 86.1504 124.592 87.014C122.606 87.8776 120.464 88.3232 118.298 88.3232C116.133 88.3232 113.991 87.8776 112.005 87.014C110.019 86.1504 108.232 84.8874 106.755 83.3036C106.48 83.006 106.271 82.654 106.141 82.2703C106.01 81.8866 105.962 81.4798 105.999 81.0763C106.036 80.6728 106.158 80.2816 106.356 79.9281C106.554 79.5745 106.824 79.2665 107.149 79.0241Z" fill="#3E4266"/>
</g>
<path d="M25 112.499C76 129 74.5 94.4998 107 103" stroke="#C4C4C4" stroke-width="1.5" stroke-linecap="round" stroke-dasharray="5 5"/>
<path d="M64 28C78.5 29.5 60.5 44.5 96 55.5" stroke="#C4C4C4" stroke-width="1.5" stroke-linecap="round" stroke-dasharray="5 5"/>
<path d="M129.5 101.5C151.167 98.4995 191.3 63.6 214.5 94" stroke="#C4C4C4" stroke-width="1.5" stroke-linecap="round" stroke-dasharray="5 5"/>
<defs>
<clipPath id="clip0">
<rect width="38.747" height="48" fill="white" transform="translate(99 53)"/>
</clipPath>
</defs>
</svg>
